<svg width="51" height="61" viewBox="0 0 51 61" fill="none" xmlns="http://www.w3.org/2000/svg">
<g clip-path="url(#clip0)">
<path d="M37.1238 24.6454C37.0443 24.5652 36.9496 24.5016 36.8453 24.4581C36.7411 24.4147 36.6292 24.3923 36.5162 24.3923C36.4033 24.3923 36.2914 24.4147 36.1871 24.4581C36.0829 24.5016 35.9882 24.5652 35.9087 24.6454L31.125 29.4373C30.5337 29.049 29.8598 28.8044 29.1571 28.723C28.4544 28.6416 27.7424 28.7257 27.078 28.9686C26.4136 29.2115 25.8152 29.6064 25.3307 30.1217C24.8462 30.6371 24.4889 31.2587 24.2875 31.9368C24.0861 32.6148 24.0461 33.3306 24.1707 34.0269C24.2953 34.7232 24.5811 35.3807 25.0052 35.9468C25.4293 36.513 25.9799 36.9721 26.6131 37.2875C27.2463 37.6028 27.9445 37.7658 28.6519 37.7632C29.2478 37.7643 29.8381 37.6478 30.3889 37.4202C30.9397 37.1927 31.4401 36.8587 31.8615 36.4374C32.2829 36.016 32.6169 35.5156 32.8444 34.9649C33.072 34.4141 33.1885 33.8239 33.1874 33.228C33.1728 32.3047 32.8739 31.4083 32.3316 30.6609L37.1067 25.8948C37.1933 25.8159 37.2628 25.7201 37.3109 25.6133C37.359 25.5065 37.3846 25.3909 37.3862 25.2738C37.3878 25.1567 37.3653 25.0405 37.3202 24.9324C37.2751 24.8243 37.2082 24.7267 37.1238 24.6454ZM30.6458 35.2303C30.3168 35.5574 29.9123 35.7985 29.468 35.9321C29.0237 36.0657 28.5533 36.0878 28.0985 35.9965C27.6436 35.9051 27.2182 35.7031 26.86 35.4083C26.5018 35.1135 26.2217 34.735 26.0445 34.3062C25.8674 33.8774 25.7986 33.4116 25.8443 32.9499C25.89 32.4883 26.0487 32.045 26.3065 31.6592C26.5643 31.2735 26.9131 30.9572 27.3222 30.7383C27.7312 30.5194 28.1879 30.4047 28.6519 30.4042C29.2113 30.4037 29.7583 30.5693 30.2235 30.8801C30.6886 31.1909 31.051 31.6328 31.2646 32.1498C31.4782 32.6668 31.5334 33.2356 31.4232 33.7841C31.3131 34.3325 31.0425 34.8359 30.6458 35.2303Z" fill="white"/>
<path d="M4.4256 32.4409C4.4256 32.6678 4.51576 32.8855 4.67624 33.046C4.83673 33.2064 5.05439 33.2966 5.28135 33.2966H20.0858C20.3128 33.2966 20.5305 33.2064 20.6909 33.046C20.8514 32.8855 20.9416 32.6678 20.9416 32.4409C20.9416 32.2139 20.8514 31.9963 20.6909 31.8358C20.5305 31.6754 20.3128 31.5852 20.0858 31.5852H5.28135C5.05439 31.5852 4.83673 31.6754 4.67624 31.8358C4.51576 31.9963 4.4256 32.2139 4.4256 32.4409Z" fill="white"/>
<path d="M1.6872 26.1086H16.4917C16.7186 26.1086 16.9363 26.0184 17.0968 25.858C17.2573 25.6975 17.3474 25.4798 17.3474 25.2529C17.3474 25.026 17.2573 24.8083 17.0968 24.6478C16.9363 24.4874 16.7186 24.3972 16.4917 24.3972H1.6872C1.46024 24.3972 1.24258 24.4874 1.08209 24.6478C0.921611 24.8083 0.831451 25.026 0.831451 25.2529C0.831451 25.4798 0.921611 25.6975 1.08209 25.858C1.24258 26.0184 1.46024 26.1086 1.6872 26.1086Z" fill="white"/>
<path d="M17.3474 39.6286C17.3474 39.4017 17.2573 39.184 17.0968 39.0236C16.9363 38.8631 16.7186 38.7729 16.4917 38.7729H1.6872C1.46024 38.7729 1.24258 38.8631 1.08209 39.0236C0.921611 39.184 0.831451 39.4017 0.831451 39.6286C0.831451 39.8556 0.921611 40.0732 1.08209 40.2337C1.24258 40.3942 1.46024 40.4843 1.6872 40.4843H16.4917C16.7186 40.4843 16.9363 40.3942 17.0968 40.2337C17.2573 40.0732 17.3474 39.8556 17.3474 39.6286Z" fill="white"/>
<path d="M44.3977 17.8085L45.2962 16.9528C45.7244 17.1957 46.2075 17.3253 46.6997 17.3293C47.2751 17.3293 47.8377 17.1587 48.3161 16.839C48.7946 16.5193 49.1675 16.0649 49.3878 15.5333C49.608 15.0017 49.6656 14.4168 49.5533 13.8524C49.4411 13.288 49.164 12.7696 48.757 12.3628C48.3501 11.9559 47.8317 11.6788 47.2673 11.5665C46.7029 11.4543 46.1179 11.5119 45.5862 11.7321C45.0546 11.9523 44.6002 12.3252 44.2805 12.8036C43.9608 13.2821 43.7901 13.8446 43.7901 14.42C43.7913 14.8697 43.8998 15.3127 44.1068 15.7121L43.1483 16.6704C39.4497 13.434 34.7526 11.5643 29.8414 11.3737V7.71138H32.9221C33.1491 7.71138 33.3667 7.62123 33.5272 7.46075C33.6877 7.30028 33.7778 7.08263 33.7778 6.85569C33.7778 6.62875 33.6877 6.4111 33.5272 6.25063C33.3667 6.09015 33.1491 6 32.9221 6H25.1348C24.9078 6 24.6901 6.09015 24.5297 6.25063C24.3692 6.4111 24.279 6.62875 24.279 6.85569C24.279 7.08263 24.3692 7.30028 24.5297 7.46075C24.6901 7.62123 24.9078 7.71138 25.1348 7.71138H28.1299V11.3737C22.9756 11.5744 18.0637 13.6143 14.2839 17.124C14.1587 17.2411 14.0717 17.3931 14.0339 17.5603C13.9962 17.7275 14.0096 17.9021 14.0723 18.0616C14.135 18.2212 14.2441 18.3582 14.3856 18.4549C14.5271 18.5517 14.6944 18.6037 14.8658 18.6043H20.9929C21.1334 18.6036 21.2715 18.5683 21.3951 18.5016C23.7283 17.2481 26.337 16.5952 28.9856 16.602C31.4159 16.6065 33.8142 17.1557 36.0041 18.2092C38.1941 19.2626 40.1201 20.7936 41.6404 22.6894C43.1606 24.5853 44.2366 26.7978 44.789 29.1642C45.3415 31.5306 45.3564 33.9908 44.8326 36.3637C44.3089 38.7367 43.2599 40.9621 41.7627 42.8762C40.2655 44.7903 38.3583 46.3445 36.1812 47.4244C34.0042 48.5044 31.6127 49.0826 29.1827 49.1165C26.7527 49.1505 24.346 48.6394 22.1396 47.6207C22.0268 47.5693 21.9042 47.543 21.7802 47.5437H15.422C15.2483 47.5439 15.0788 47.5971 14.936 47.696C14.7931 47.7949 14.6838 47.9349 14.6225 48.0974C14.5612 48.26 14.5508 48.4373 14.5928 48.6059C14.6347 48.7744 14.7269 48.9263 14.8572 49.0411C19.0533 52.6327 24.4697 54.4737 29.9855 54.183C35.5013 53.8923 40.6942 51.4923 44.4895 47.4796C48.2847 43.4669 50.3919 38.1487 50.3748 32.6257C50.3577 27.1027 48.2178 21.7977 44.3977 17.8085ZM46.6997 13.1878C47.0174 13.1878 47.3222 13.314 47.5468 13.5387C47.7715 13.7633 47.8977 14.068 47.8977 14.3858C47.8977 14.7035 47.7715 15.0082 47.5468 15.2328C47.3222 15.4575 47.0174 15.5837 46.6997 15.5837C46.4324 15.5839 46.1729 15.4934 45.9637 15.327C45.9349 15.2624 45.8975 15.2019 45.8525 15.1473C45.806 15.113 45.7574 15.0815 45.707 15.0532C45.5728 14.8565 45.5012 14.6238 45.5016 14.3858C45.5016 14.068 45.6279 13.7633 45.8525 13.5387C46.0772 13.314 46.3819 13.1878 46.6997 13.1878Z" fill="white"/>
</g>
<defs>
<clipPath id="clip0">
<path d="M0.831451 0H25.5506C39.3577 0 50.5506 11.1929 50.5506 25V60.4651H25.8314C12.0243 60.4651 0.831451 49.2722 0.831451 35.4651V0Z" fill="white"/>
</clipPath>
</defs>
</svg>
