<svg width="50" height="50" viewBox="0 0 50 50" fill="none" xmlns="http://www.w3.org/2000/svg">
<path d="M25.7805 36.8035C25.8085 36.54 25.833 36.277 25.8615 36.014C27.5675 36.1995 29.2675 36.4 30.9736 36.566C31.8361 36.6535 32.7201 36.8015 33.5701 36.711C34.8651 36.574 35.8056 35.5315 35.9076 34.3525C36.0201 33.0315 35.2826 32.2885 34.1151 31.984C33.1806 31.7375 32.2066 31.622 31.2446 31.5195C27.256 31.0915 23.268 30.6495 19.274 30.3085C18.1065 30.207 16.718 30.0565 15.762 30.5595C12.0075 32.5345 8.37752 34.7435 4.72252 36.907C3.75401 37.4785 3.03801 38.294 3.04751 39.5395C3.06001 41.506 2.92951 43.481 3.08801 45.435C3.25601 47.5005 4.94052 48.4775 6.84852 47.6775C8.04452 47.1745 9.15902 46.4525 10.261 45.7535C12.8885 44.081 15.606 43.1065 18.86 43.2685C23.872 43.5175 28.9065 43.272 33.9316 43.3625C36.1141 43.403 37.9571 42.9705 39.6076 41.4185C41.4256 39.709 43.4526 38.225 45.3701 36.619C46.5406 35.6385 46.8331 33.8525 46.0426 32.831C45.3576 31.9485 43.5951 31.7835 42.4501 32.615C41.6616 33.189 40.9806 33.919 40.2866 34.6135C37.8076 37.0955 35.0681 38.6765 31.3191 38.086C29.4101 37.7875 27.511 37.6725 25.7805 36.8035Z" fill="white"/>
<path fill-rule="evenodd" clip-rule="evenodd" d="M25.78 36.8036C27.5105 37.6721 29.41 37.7876 31.3179 38.0871C35.0669 38.6776 37.8064 37.0966 40.2854 34.6146C40.9794 33.9201 41.6604 33.1901 42.4489 32.6161C43.5939 31.7846 45.3559 31.9496 46.0414 32.8321C46.8319 33.8536 46.5394 35.6396 45.3689 36.6201C43.4514 38.2261 41.4239 39.7101 39.6064 41.4196C37.9559 42.9716 36.1134 43.4041 33.9304 43.3636C28.9055 43.2731 23.8715 43.5191 18.859 43.2696C15.6055 43.1076 12.888 44.0821 10.26 45.7546C9.15799 46.4531 8.0435 47.1756 6.8475 47.6786C4.9395 48.4786 3.25501 47.5016 3.08701 45.4361C2.92851 43.4821 3.05901 41.5071 3.04651 39.5406C3.03701 38.2956 3.7535 37.4796 4.7215 36.9081C8.3765 34.7446 12.0065 32.5356 15.761 30.5606C16.717 30.0576 18.105 30.2081 19.273 30.3096C23.2675 30.6506 27.2555 31.0921 31.2434 31.5206C32.2054 31.6231 33.1794 31.7386 34.1139 31.9851C35.2814 32.2896 36.0189 33.0331 35.9064 34.3536C35.8044 35.5321 34.8639 36.5746 33.5689 36.7121C32.7189 36.8026 31.8344 36.6546 30.9724 36.5671C29.2665 36.4011 27.5665 36.2006 25.8605 36.0151C25.8325 36.2776 25.8075 36.5401 25.78 36.8036Z" fill="white"/>
<path fill-rule="evenodd" clip-rule="evenodd" d="M31.5175 22.61C31.2685 19.82 32.364 17.4295 34.755 16.1835C32.6415 15.2915 31.468 11.048 32.165 8.66253C32.3485 8.03753 32.962 4.32853 37.09 1.80054C40.2225 5.32803 40.584 7.81553 40.434 10.6545C40.2445 14.299 37.501 15.924 36.3345 16.5415C34.0305 17.762 32.688 19.518 32.8905 21.6755C32.9215 21.9965 32.9865 22.3135 33.0615 22.809C33.0615 22.809 36.866 22.661 39.786 25.8495C43.149 29.5185 40.717 34.0845 36.3995 36.009C37.097 35.3115 37.3305 33.802 37.1935 33.3195C36.7725 31.842 35.8365 30.779 34.307 30.5425C32.1655 30.2125 29.9955 30.0695 27.838 29.8385C25.3725 29.5745 22.9095 29.3035 20.326 29.02C20.211 26.442 22.0725 24.9365 23.5485 23.955C24.9865 22.9985 26.7115 22.515 28.4955 22.435C29.2765 21.5135 27.7515 20.0055 26.7705 19.3C22.219 16.0265 22.023 11.109 26.4035 7.03053C32.2665 11.4515 30.5035 17.1365 28.3495 19.0885C30.621 21.115 29.774 22.4605 31.5175 22.61Z" fill="white"/>
</svg>
