<svg width="51" height="63" viewBox="0 0 51 63" fill="none" xmlns="http://www.w3.org/2000/svg">
<path d="M20.5842 25.6015C20.529 24.4037 20.8604 23.2602 21.5232 22.3346C21.1366 22.2257 20.7499 22.2257 20.3081 22.2257L19.0377 22.3346L15.5027 27.7795L17.1597 38.6693C17.4911 40.6839 19.3139 42.0451 21.3575 41.8817C21.5784 41.8817 21.7994 41.8273 22.0203 41.7728C21.6889 41.1739 21.5232 40.4661 21.468 39.7582L20.5842 25.6015Z" fill="white"/>
<path d="M34.0613 34.4767C35.2212 33.9866 36.4363 33.7689 37.7067 33.7689C38.0934 33.7689 38.4248 33.7689 38.8114 33.8233L39.9161 26.7994C40.2475 24.6215 38.6457 22.6068 36.4363 22.3891L34.945 22.2257C34.5032 22.1713 34.1165 22.2257 33.7299 22.3346C34.4479 23.3147 34.7241 24.4581 34.6689 25.6015L34.0613 34.4767Z" fill="white"/>
<path d="M31.7415 35.729L32.4043 25.4927C32.5147 23.7503 31.1339 22.3346 29.4217 22.3346H28.4274C28.5931 20.6467 28.9798 18.741 29.3664 17.8698C29.6978 17.1076 27.1018 16.9987 26.8809 17.8154C26.7152 18.5232 26.3838 20.5378 26.2733 22.3346H25.8867C24.1192 22.3346 22.7936 23.7503 22.9041 25.4927L23.7878 39.6494C23.8983 41.2284 25.2239 42.4263 26.7704 42.4263H27.9856C28.0408 41.7729 28.2065 41.1739 28.3722 40.575C28.9798 38.5604 30.1397 36.9269 31.7415 35.729Z" fill="white"/>
<path d="M10.2555 12.0983L16.8836 14.6574C16.994 14.7118 17.1597 14.7663 17.2702 14.8207L20.8052 11.4449C21.3575 10.9548 21.1918 10.0292 20.4738 9.75697C20.3081 9.70252 20.1976 9.64807 20.0319 9.64807C19.8662 9.64807 19.7005 9.70252 19.5348 9.81142L16.1655 11.6082L17.1045 7.47012C17.215 6.98008 16.9388 6.49004 16.4417 6.27224H16.276C15.7789 6.05445 15.2818 6.27224 15.0056 6.70783L12.8515 10.3559L11.6363 6.76228C11.5259 6.43559 11.3049 6.2178 11.0288 6.1089C10.8631 6.05445 10.7526 6 10.6421 6C10.0898 6 9.5927 6.49004 9.5927 7.08898L9.9241 11.9349C10.0346 11.9894 10.145 12.0438 10.2555 12.0983Z" fill="white"/>
<path d="M7.27288 26.4728C7.49382 25.9283 8.15662 25.6561 8.70896 25.8194L13.2381 27.6163L17.6016 20.9735C18.7063 19.34 17.9882 17.1076 16.1103 16.3998L9.53747 13.8952C7.65952 13.1873 5.61587 14.3307 5.28446 16.2365L5.06353 17.4888L11.084 19.7756C11.6364 19.9934 11.9125 20.6468 11.6916 21.1913L11.6364 21.3002C11.4706 21.7358 11.0288 22.008 10.5869 22.008C10.4212 22.008 10.3107 22.008 10.2003 21.9536L4.67689 19.7756L2.74371 30.9376L5.61587 32.0266C5.89204 32.1355 6.11297 32.3533 6.22344 32.6255C6.33391 32.8978 6.38914 33.17 6.27867 33.4423L6.22344 33.6056C6.0025 34.0412 5.61587 34.3135 5.174 34.3135C5.00829 34.3135 4.89783 34.259 4.78736 34.259H4.73212L2.30184 33.3334L1.03146 40.4662C0.700057 42.1541 3.07511 43.0797 4.01409 41.6096L11.9678 29.5764L7.88045 27.9429C7.60428 27.834 7.38335 27.6163 7.27288 27.344C7.16241 27.0718 7.16241 26.7995 7.27288 26.5273V26.4728Z" fill="white"/>
<path d="M44.6109 40.1394C42.6778 36.3824 38.0381 34.8579 34.227 36.7636C30.4158 38.6693 28.9245 43.4063 30.8025 46.9999C31.631 48.579 34.8898 54.1872 36.602 57.1274C37.0991 57.9442 38.259 57.9442 38.7562 57.1274C40.4684 54.1872 43.7272 48.579 44.6109 46.9999C45.7708 44.822 45.7708 42.3173 44.6109 40.1394ZM37.7067 46.8366C35.884 46.8366 34.3374 45.3665 34.3374 43.5152C34.3374 41.7184 35.8288 40.1938 37.7067 40.1938C39.5847 40.1938 41.076 41.664 41.076 43.5152C41.076 45.3665 39.5847 46.8366 37.7067 46.8366Z" fill="white"/>
</svg>
