<svg width="348" height="118" viewBox="0 0 348 118" fill="none" xmlns="http://www.w3.org/2000/svg">
<path d="M30.3127 60.882L23.9947 59.946V56.046H46.3807V59.946L38.6587 60.882V109.398L58.7827 108.696L63.3847 95.592L68.1427 96.294L65.4127 114H23.8387V110.178L30.3127 109.398V60.882ZM92.2283 114.858C85.9363 114.858 81.1263 112.804 77.7983 108.696C74.5223 104.588 72.8843 99.102 72.8843 92.238C72.8843 87.714 73.7423 83.736 75.4583 80.304C77.1743 76.872 79.5663 74.22 82.6343 72.348C85.7543 70.476 89.2903 69.54 93.2423 69.54C98.0783 69.54 101.822 70.892 104.474 73.596C107.178 76.248 108.608 80.07 108.764 85.062C108.764 88.234 108.582 90.652 108.218 92.316H81.3863C81.4903 97.464 82.6863 101.624 84.9743 104.796C87.2623 107.916 90.5123 109.476 94.7243 109.476C96.8043 109.476 98.9623 109.112 101.198 108.384C103.486 107.604 105.254 106.694 106.502 105.654L107.984 109.086C106.476 110.646 104.24 111.998 101.276 113.142C98.3123 114.286 95.2963 114.858 92.2283 114.858ZM100.184 88.182C100.34 87.09 100.418 85.972 100.418 84.828C100.366 81.448 99.6383 78.796 98.2343 76.872C96.8823 74.896 94.7243 73.908 91.7603 73.908C88.7443 73.908 86.3263 75 84.5063 77.184C82.7383 79.368 81.7243 83.034 81.4643 88.182H100.184ZM128.806 114.78C125.842 114.78 123.632 114.104 122.176 112.752C120.72 111.4 119.992 109.086 119.992 105.81V75.858H114.376V72.348C114.636 72.296 115.364 72.114 116.56 71.802C117.756 71.49 118.562 71.204 118.978 70.944C119.81 70.476 120.46 69.54 120.928 68.136C121.344 67.148 121.838 65.562 122.41 63.378C122.982 61.194 123.32 59.894 123.424 59.478H128.026L128.182 70.71H141.208V75.858H128.182V99.804C128.182 102.768 128.26 104.848 128.416 106.044C128.624 107.24 129.014 108.02 129.586 108.384C130.21 108.748 131.25 108.93 132.706 108.93C134.11 108.93 135.644 108.748 137.308 108.384C139.024 108.02 140.35 107.63 141.286 107.214L142.456 110.724C141.208 111.66 139.18 112.57 136.372 113.454C133.616 114.338 131.094 114.78 128.806 114.78ZM154.486 107.76C155.006 108.54 156.098 109.242 157.762 109.866C159.478 110.49 161.272 110.802 163.144 110.802C166.108 110.802 168.292 110.23 169.696 109.086C171.1 107.942 171.802 106.356 171.802 104.328C171.802 102.924 171.36 101.702 170.476 100.662C169.592 99.622 168.344 98.712 166.732 97.932C165.172 97.1 162.91 96.112 159.946 94.968C155.942 93.46 153.004 91.666 151.132 89.586C149.312 87.454 148.402 84.672 148.402 81.24C148.402 78.952 149.078 76.95 150.43 75.234C151.834 73.518 153.732 72.192 156.124 71.256C158.568 70.268 161.272 69.774 164.236 69.774C166.628 69.774 168.708 69.956 170.476 70.32C172.296 70.684 173.752 71.048 174.844 71.412C175.936 71.776 176.664 72.01 177.028 72.114V81.786H172.27L170.71 76.014C170.398 75.39 169.566 74.87 168.214 74.454C166.862 73.986 165.354 73.752 163.69 73.752C161.35 73.752 159.452 74.272 157.996 75.312C156.592 76.352 155.89 77.756 155.89 79.524C155.89 81.084 156.254 82.384 156.982 83.424C157.762 84.412 158.724 85.218 159.868 85.842C161.012 86.466 162.572 87.194 164.548 88.026L166.108 88.65C169.02 89.794 171.386 90.886 173.206 91.926C175.026 92.966 176.534 94.344 177.73 96.06C178.978 97.724 179.602 99.778 179.602 102.222C179.602 106.07 178.094 109.138 175.078 111.426C172.114 113.714 168.032 114.858 162.832 114.858C160.284 114.858 157.606 114.52 154.798 113.844C152.042 113.116 149.78 112.388 148.012 111.66V101.676H153.082L154.486 107.76ZM211.674 60.882L205.278 59.946V56.046H244.98L246.072 68.136H241.626L239.364 60.57L220.02 60.102V82.098L233.046 81.864L234.138 75.39H238.428V93.33H234.138L233.046 86.622L220.02 86.388V109.632L242.016 108.852L246.15 99.024L250.752 100.428L248.49 114H205.2V110.178L211.674 109.398V60.882ZM255.929 102.3C255.929 97.412 258.373 93.824 263.261 91.536C268.149 89.196 274.337 87.948 281.825 87.792V85.608C281.825 83.164 281.565 81.24 281.045 79.836C280.525 78.432 279.615 77.418 278.315 76.794C277.067 76.118 275.273 75.78 272.933 75.78C270.281 75.78 267.889 76.17 265.757 76.95C263.677 77.678 261.597 78.588 259.517 79.68L257.567 75.624C258.243 75.052 259.491 74.298 261.311 73.362C263.131 72.426 265.237 71.594 267.629 70.866C270.021 70.138 272.413 69.774 274.805 69.774C278.497 69.774 281.409 70.294 283.541 71.334C285.725 72.322 287.285 73.934 288.221 76.17C289.157 78.406 289.625 81.396 289.625 85.14V110.178H294.227V113.61C293.187 113.87 291.861 114.13 290.249 114.39C288.689 114.65 287.311 114.78 286.115 114.78C284.659 114.78 283.671 114.546 283.151 114.078C282.631 113.662 282.371 112.7 282.371 111.192V108.618C280.811 110.178 278.887 111.608 276.599 112.908C274.363 114.208 271.815 114.858 268.955 114.858C265.211 114.858 262.091 113.792 259.595 111.66C257.151 109.476 255.929 106.356 255.929 102.3ZM272.309 109.554C273.661 109.554 275.221 109.138 276.989 108.306C278.757 107.474 280.369 106.486 281.825 105.342V91.926C276.157 91.926 271.867 92.81 268.955 94.578C266.095 96.294 264.665 98.556 264.665 101.364C264.665 104.172 265.341 106.252 266.693 107.604C268.097 108.904 269.969 109.554 272.309 109.554ZM312.99 114.78C310.026 114.78 307.816 114.104 306.36 112.752C304.904 111.4 304.176 109.086 304.176 105.81V75.858H298.56V72.348C298.82 72.296 299.548 72.114 300.744 71.802C301.94 71.49 302.746 71.204 303.162 70.944C303.994 70.476 304.644 69.54 305.112 68.136C305.528 67.148 306.022 65.562 306.594 63.378C307.166 61.194 307.504 59.894 307.608 59.478H312.21L312.366 70.71H325.392V75.858H312.366V99.804C312.366 102.768 312.444 104.848 312.6 106.044C312.808 107.24 313.198 108.02 313.77 108.384C314.394 108.748 315.434 108.93 316.89 108.93C318.294 108.93 319.828 108.748 321.492 108.384C323.208 108.02 324.534 107.63 325.47 107.214L326.64 110.724C325.392 111.66 323.364 112.57 320.556 113.454C317.8 114.338 315.278 114.78 312.99 114.78Z" fill="black"/>
<path d="M137 6.48571V44.8857H185V6.48571M137 6.48571V1H133V49H189V1H185V6.48571M137 6.48571H185" stroke="black"/>
<rect x="133" y="1" width="4" height="48" fill="black"/>
<rect x="133" y="44" width="56" height="5" fill="black"/>
<rect x="185" y="1" width="4" height="48" fill="black"/>
<path d="M136.5 5.5H186.5" stroke="black"/>
<path d="M178 8L146.81 39.7977L149.433 40.8842L163.542 26.4996C164.21 27.1551 166.175 27.0186 167.031 26.7029L179.16 14.3371C180.2 13.2772 178.82 9.67074 178 8Z" fill="black"/>
<path d="M148.817 18.4731L172.091 41.1571L172.762 38.3199L150.562 16.6828C151.399 15.8234 150.88 13.9679 150.516 13.1475L145.503 8.26174C145.145 7.91275 144.098 8.98694 144.456 9.33592L149.469 14.2217C149.827 14.5707 148.78 15.6449 148.422 15.2959L143.409 10.4101C143.051 10.0611 142.004 11.1353 142.362 11.4843L147.375 16.3701C147.733 16.7191 146.686 17.7933 146.328 17.4443L141.316 12.5585C140.957 12.2095 139.91 13.2837 140.269 13.6327L145.281 18.5185C146.141 19.356 147.996 18.8372 148.817 18.4731Z" fill="black"/>
</svg>
