<svg width="39" height="34" viewBox="0 0 39 34" fill="none" xmlns="http://www.w3.org/2000/svg">
<path d="M3.66667 4.65714V30.2571H35.6667V4.65714M3.66667 4.65714V1H1V33H38.3333V1H35.6667V4.65714M3.66667 4.65714H35.6667" stroke="black"/>
<rect x="1" y="1" width="2.66667" height="32" fill="black"/>
<rect x="1" y="29.6667" width="37.3333" height="3.33333" fill="black"/>
<rect x="35.6667" y="1" width="2.66667" height="32" fill="black"/>
<path d="M3.33333 4H36.6667" stroke="black"/>
<path d="M31 5.66666L10.2069 26.8651L11.955 27.5895L21.3614 17.9997C21.807 18.4367 23.1165 18.3457 23.6872 18.1352L31.7734 9.89141C32.4665 9.18479 31.5466 6.78048 31 5.66666Z" fill="black"/>
<path d="M11.5445 12.6487L27.0605 27.7714L27.5077 25.8799L12.7077 11.4552C13.2661 10.8823 12.9202 9.64524 12.6775 9.09834L9.33555 5.84115C9.09684 5.60849 8.39887 6.32461 8.63758 6.55727L11.9795 9.81447C12.2182 10.0471 11.5202 10.7633 11.2815 10.5306L7.93961 7.2734C7.7009 7.04074 7.00293 7.75687 7.24164 7.98953L10.5836 11.2467C10.8223 11.4794 10.1243 12.1955 9.88559 11.9628L6.54367 8.70565C6.30496 8.47299 5.60699 9.18912 5.8457 9.42178L9.18762 12.679C9.76052 13.2374 10.9975 12.8915 11.5445 12.6487Z" fill="black"/>
</svg>
