<svg width="90" height="60" viewBox="0 0 90 60" fill="none" xmlns="http://www.w3.org/2000/svg">
<path d="M3.63619 40.656L1.69219 40.368V39.168H8.58019V40.368L6.20419 40.656V55.584L12.3962 55.368L13.8122 51.336L15.2762 51.552L14.4362 57H1.64419V55.824L3.63619 55.584V40.656ZM22.6871 57.264C20.7511 57.264 19.2711 56.632 18.2471 55.368C17.2391 54.104 16.7351 52.416 16.7351 50.304C16.7351 48.912 16.9991 47.688 17.5271 46.632C18.0551 45.576 18.7911 44.76 19.7351 44.184C20.6951 43.608 21.7831 43.32 22.9991 43.32C24.4871 43.32 25.6391 43.736 26.4551 44.568C27.2871 45.384 27.7271 46.56 27.7751 48.096C27.7751 49.072 27.7191 49.816 27.6071 50.328H19.3511C19.3831 51.912 19.7511 53.192 20.4551 54.168C21.1591 55.128 22.1591 55.608 23.4551 55.608C24.0951 55.608 24.7591 55.496 25.4471 55.272C26.1511 55.032 26.6951 54.752 27.0791 54.432L27.5351 55.488C27.0711 55.968 26.3831 56.384 25.4711 56.736C24.5591 57.088 23.6311 57.264 22.6871 57.264ZM25.1351 49.056C25.1831 48.72 25.2071 48.376 25.2071 48.024C25.1911 46.984 24.9671 46.168 24.5351 45.576C24.1191 44.968 23.4551 44.664 22.5431 44.664C21.6151 44.664 20.8711 45 20.3111 45.672C19.7671 46.344 19.4551 47.472 19.3751 49.056H25.1351ZM33.9418 57.24C33.0298 57.24 32.3498 57.032 31.9018 56.616C31.4538 56.2 31.2298 55.488 31.2298 54.48V45.264H29.5018V44.184C29.5818 44.168 29.8058 44.112 30.1738 44.016C30.5418 43.92 30.7898 43.832 30.9178 43.752C31.1738 43.608 31.3738 43.32 31.5178 42.888C31.6458 42.584 31.7978 42.096 31.9738 41.424C32.1498 40.752 32.2538 40.352 32.2858 40.224H33.7018L33.7498 43.68H37.7578V45.264H33.7498V52.632C33.7498 53.544 33.7738 54.184 33.8218 54.552C33.8858 54.92 34.0058 55.16 34.1818 55.272C34.3738 55.384 34.6938 55.44 35.1418 55.44C35.5738 55.44 36.0458 55.384 36.5578 55.272C37.0858 55.16 37.4938 55.04 37.7818 54.912L38.1418 55.992C37.7578 56.28 37.1338 56.56 36.2698 56.832C35.4218 57.104 34.6458 57.24 33.9418 57.24ZM41.8433 55.08C42.0033 55.32 42.3393 55.536 42.8513 55.728C43.3793 55.92 43.9313 56.016 44.5073 56.016C45.4193 56.016 46.0913 55.84 46.5233 55.488C46.9553 55.136 47.1713 54.648 47.1713 54.024C47.1713 53.592 47.0353 53.216 46.7633 52.896C46.4913 52.576 46.1073 52.296 45.6113 52.056C45.1313 51.8 44.4353 51.496 43.5233 51.144C42.2913 50.68 41.3873 50.128 40.8113 49.488C40.2513 48.832 39.9713 47.976 39.9713 46.92C39.9713 46.216 40.1793 45.6 40.5953 45.072C41.0273 44.544 41.6113 44.136 42.3473 43.848C43.0993 43.544 43.9313 43.392 44.8433 43.392C45.5793 43.392 46.2193 43.448 46.7633 43.56C47.3233 43.672 47.7713 43.784 48.1073 43.896C48.4433 44.008 48.6673 44.08 48.7793 44.112V47.088H47.3153L46.8353 45.312C46.7393 45.12 46.4833 44.96 46.0673 44.832C45.6513 44.688 45.1873 44.616 44.6753 44.616C43.9553 44.616 43.3713 44.776 42.9233 45.096C42.4913 45.416 42.2753 45.848 42.2753 46.392C42.2753 46.872 42.3873 47.272 42.6113 47.592C42.8513 47.896 43.1473 48.144 43.4993 48.336C43.8513 48.528 44.3313 48.752 44.9393 49.008L45.4193 49.2C46.3153 49.552 47.0433 49.888 47.6033 50.208C48.1633 50.528 48.6273 50.952 48.9953 51.48C49.3793 51.992 49.5713 52.624 49.5713 53.376C49.5713 54.56 49.1073 55.504 48.1793 56.208C47.2673 56.912 46.0113 57.264 44.4113 57.264C43.6273 57.264 42.8033 57.16 41.9393 56.952C41.0913 56.728 40.3953 56.504 39.8513 56.28V53.208H41.4113L41.8433 55.08ZM53.7444 40.656L51.7764 40.368V39.168H63.9924L64.3284 42.888H62.9604L62.2644 40.56L56.3124 40.416V47.184L60.3204 47.112L60.6564 45.12H61.9764V50.64H60.6564L60.3204 48.576L56.3124 48.504V55.656L63.0804 55.416L64.3524 52.392L65.7684 52.824L65.0724 57H51.7524V55.824L53.7444 55.584V40.656ZM67.3613 53.4C67.3613 51.896 68.1133 50.792 69.6173 50.088C71.1213 49.368 73.0253 48.984 75.3293 48.936V48.264C75.3293 47.512 75.2493 46.92 75.0893 46.488C74.9293 46.056 74.6493 45.744 74.2493 45.552C73.8653 45.344 73.3133 45.24 72.5933 45.24C71.7773 45.24 71.0413 45.36 70.3853 45.6C69.7453 45.824 69.1053 46.104 68.4653 46.44L67.8652 45.192C68.0733 45.016 68.4573 44.784 69.0173 44.496C69.5773 44.208 70.2253 43.952 70.9613 43.728C71.6973 43.504 72.4333 43.392 73.1693 43.392C74.3053 43.392 75.2013 43.552 75.8573 43.872C76.5293 44.176 77.0093 44.672 77.2973 45.36C77.5853 46.048 77.7293 46.968 77.7293 48.12V55.824H79.1453V56.88C78.8253 56.96 78.4173 57.04 77.9213 57.12C77.4413 57.2 77.0173 57.24 76.6493 57.24C76.2013 57.24 75.8973 57.168 75.7373 57.024C75.5773 56.896 75.4973 56.6 75.4973 56.136V55.344C75.0173 55.824 74.4253 56.264 73.7213 56.664C73.0333 57.064 72.2493 57.264 71.3693 57.264C70.2173 57.264 69.2573 56.936 68.4893 56.28C67.7373 55.608 67.3613 54.648 67.3613 53.4ZM72.4013 55.632C72.8173 55.632 73.2973 55.504 73.8413 55.248C74.3853 54.992 74.8813 54.688 75.3293 54.336V50.208C73.5853 50.208 72.2653 50.48 71.3693 51.024C70.4893 51.552 70.0493 52.248 70.0493 53.112C70.0493 53.976 70.2573 54.616 70.6733 55.032C71.1053 55.432 71.6813 55.632 72.4013 55.632ZM84.9184 57.24C84.0064 57.24 83.3264 57.032 82.8784 56.616C82.4304 56.2 82.2064 55.488 82.2064 54.48V45.264H80.4784V44.184C80.5584 44.168 80.7824 44.112 81.1504 44.016C81.5184 43.92 81.7664 43.832 81.8944 43.752C82.1504 43.608 82.3504 43.32 82.4944 42.888C82.6224 42.584 82.7744 42.096 82.9504 41.424C83.1264 40.752 83.2304 40.352 83.2624 40.224H84.6784L84.7264 43.68H88.7344V45.264H84.7264V52.632C84.7264 53.544 84.7504 54.184 84.7984 54.552C84.8624 54.92 84.9824 55.16 85.1584 55.272C85.3504 55.384 85.6704 55.44 86.1184 55.44C86.5504 55.44 87.0224 55.384 87.5344 55.272C88.0624 55.16 88.4704 55.04 88.7584 54.912L89.1184 55.992C88.7344 56.28 88.1104 56.56 87.2464 56.832C86.3984 57.104 85.6224 57.24 84.9184 57.24Z" fill="black"/>
<path d="M28.6667 4.65714V30.2571H60.6667V4.65714M28.6667 4.65714V1H26V33H63.3333V1H60.6667V4.65714M28.6667 4.65714H60.6667" stroke="black"/>
<rect x="26" y="1" width="2.66667" height="32" fill="black"/>
<rect x="26" y="29.6667" width="37.3333" height="3.33333" fill="black"/>
<rect x="60.6667" y="1" width="2.66667" height="32" fill="black"/>
<path d="M28.3333 4H61.6667" stroke="black"/>
<path d="M56 5.66666L35.2069 26.8651L36.955 27.5895L46.3614 17.9997C46.807 18.4367 48.1165 18.3457 48.6872 18.1352L56.7734 9.89141C57.4665 9.18479 56.5466 6.78048 56 5.66666Z" fill="black"/>
<path d="M36.5445 12.6487L52.0605 27.7714L52.5077 25.8799L37.7077 11.4552C38.2661 10.8823 37.9202 9.64524 37.6775 9.09834L34.3356 5.84115C34.0968 5.60849 33.3989 6.32461 33.6376 6.55727L36.9795 9.81447C37.2182 10.0471 36.5202 10.7633 36.2815 10.5306L32.9396 7.2734C32.7009 7.04074 32.0029 7.75687 32.2416 7.98953L35.5836 11.2467C35.8223 11.4794 35.1243 12.1955 34.8856 11.9628L31.5437 8.70565C31.305 8.47299 30.607 9.18912 30.8457 9.42178L34.1876 12.679C34.7605 13.2374 35.9975 12.8915 36.5445 12.6487Z" fill="black"/>
</svg>
