<svg width="30" height="30" viewBox="0 0 30 30" fill="none" xmlns="http://www.w3.org/2000/svg">
<path d="M16.2594 19.2L18.3594 17.1C18.6422 16.8207 19.0001 16.6295 19.3895 16.5496C19.7789 16.4697 20.1831 16.5046 20.5531 16.65L23.1125 17.6719C23.4864 17.8237 23.807 18.0827 24.0339 18.4164C24.2607 18.7501 24.3838 19.1434 24.3875 19.5469V24.2344C24.3853 24.5089 24.3276 24.7801 24.2179 25.0317C24.1081 25.2833 23.9486 25.5101 23.7489 25.6984C23.5492 25.8867 23.3134 26.0326 23.0558 26.1275C22.7982 26.2223 22.5241 26.264 22.25 26.25C4.31561 25.1344 0.69686 9.94691 0.0124851 4.13441C-0.019284 3.84898 0.0097426 3.56005 0.0976553 3.28664C0.185568 3.01323 0.330374 2.76153 0.522548 2.5481C0.714722 2.33468 0.949908 2.16436 1.21263 2.04835C1.47536 1.93234 1.75967 1.87328 2.04686 1.87504H6.57499C6.97906 1.87623 7.37353 1.99829 7.70767 2.2255C8.04181 2.45272 8.30033 2.7747 8.44998 3.15004L9.47186 5.70941C9.6221 6.07792 9.66043 6.48252 9.58206 6.87267C9.5037 7.26283 9.31211 7.62125 9.03123 7.90316L6.93124 10.0032C6.93124 10.0032 8.14061 18.1875 16.2594 19.2Z" fill="black"/>
</svg>
